<?xml version="1.0" encoding="iso-8859-1"?>
<!-- Uploaded to: SVG Repo, www.svgrepo.com, Generator: SVG Repo Mixer Tools -->
<svg height="800px" width="800px" version="1.1" id="Layer_1" xmlns="http://www.w3.org/2000/svg" xmlns:xlink="http://www.w3.org/1999/xlink" 
	 viewBox="0 0 512 512" xml:space="preserve">
<path style="fill:#999999;" d="M256,10.199C120.248,10.199,10.199,120.248,10.199,256S120.248,501.801,256,501.801
	S501.801,391.752,501.801,256S391.752,10.199,256,10.199z M256,283.538c-15.209,0-27.538-12.329-27.538-27.538
	c0-15.209,12.329-27.538,27.538-27.538s27.538,12.329,27.538,27.538S271.209,283.538,256,283.538z"/>
<g>
	<circle style="fill:#4D4D4D;" cx="256" cy="118.994" r="62.179"/>
	<circle style="fill:#4D4D4D;" cx="125.573" cy="213.765" r="62.179"/>
	<circle style="fill:#4D4D4D;" cx="175.386" cy="367.1" r="62.179"/>
	<circle style="fill:#4D4D4D;" cx="336.615" cy="367.1" r="62.179"/>
	<circle style="fill:#4D4D4D;" cx="386.427" cy="213.765" r="62.179"/>
</g>
<path d="M256,512c-68.38,0-132.667-26.628-181.02-74.98S0,324.38,0,256S26.628,123.333,74.98,74.98S187.62,0,256,0
	s132.667,26.628,181.02,74.98S512,187.62,512,256s-26.628,132.667-74.98,181.02S324.38,512,256,512z M256,20.398
	C126.089,20.398,20.398,126.089,20.398,256S126.089,491.602,256,491.602S491.602,385.911,491.602,256S385.911,20.398,256,20.398z
	 M256,293.737c-20.808,0-37.737-16.929-37.737-37.737c0-20.808,16.929-37.737,37.737-37.737c20.808,0,37.737,16.929,37.737,37.737
	C293.737,276.808,276.808,293.737,256,293.737z M256,238.661c-9.561,0-17.339,7.778-17.339,17.339
	c0,9.561,7.778,17.339,17.339,17.339c9.561,0,17.339-7.778,17.339-17.339C273.339,246.439,265.561,238.661,256,238.661z"/>
<path d="M256,191.377c-39.909,0-72.378-32.468-72.378-72.378S216.091,46.621,256,46.621s72.378,32.468,72.378,72.379
	C328.378,158.908,295.909,191.377,256,191.377z M256,67.018c-28.662,0-51.979,23.318-51.979,51.98s23.317,51.979,51.979,51.979
	s51.979-23.317,51.979-51.979S284.662,67.018,256,67.018z"/>
<path d="M125.644,286.177c-7.523,0-15.081-1.187-22.442-3.579c-18.386-5.974-33.346-18.751-42.123-35.977
	c-8.776-17.226-10.321-36.839-4.347-55.226c12.333-37.955,53.243-58.801,91.202-46.47l0,0c18.386,5.975,33.346,18.751,42.124,35.977
	c8.776,17.225,10.321,36.839,4.346,55.225c-5.974,18.386-18.751,33.346-35.977,42.124
	C148.099,283.515,136.91,286.177,125.644,286.177z M125.605,161.779c-21.917,0-42.343,13.979-49.472,35.922
	c-4.291,13.205-3.182,27.29,3.121,39.661c6.303,12.371,17.047,21.547,30.252,25.838c13.203,4.29,27.29,3.182,39.661-3.121
	c12.371-6.303,21.547-17.047,25.838-30.252c4.291-13.205,3.182-27.29-3.121-39.661c-6.303-12.371-17.047-21.547-30.252-25.838l0,0
	C136.315,162.6,130.914,161.779,125.605,161.779z"/>
<path d="M175.235,439.489c-15.159,0-29.888-4.757-42.389-13.839c-32.287-23.458-39.47-68.81-16.013-101.098l0,0
	c23.458-32.288,68.81-39.471,101.099-16.013c15.64,11.364,25.92,28.138,28.944,47.234c3.024,19.095-1.569,38.225-12.932,53.865
	c-11.364,15.64-28.138,25.92-47.234,28.944C182.878,439.189,179.042,439.489,175.235,439.489z M133.336,336.542
	c-16.847,23.188-11.688,55.758,11.5,72.605c11.233,8.161,24.973,11.46,38.685,9.287c13.713-2.171,25.76-9.555,33.921-20.787
	c8.161-11.232,11.46-24.971,9.287-38.685c-2.172-13.713-9.555-25.76-20.787-33.921c-11.232-8.161-24.969-11.461-38.685-9.287
	C153.544,317.927,141.497,325.31,133.336,336.542L133.336,336.542z"/>
<path d="M336.765,439.489c-3.808,0-7.642-0.3-11.476-0.907c-19.095-3.024-35.87-13.304-47.234-28.944
	c-11.364-15.64-15.957-34.771-12.932-53.865c3.024-19.095,13.303-35.87,28.944-47.234c32.288-23.458,77.639-16.275,101.099,16.013
	c23.458,32.288,16.275,77.64-16.013,101.099C366.654,434.732,351.923,439.489,336.765,439.489z M336.501,315.103
	c-10.887,0-21.464,3.417-30.443,9.939c-11.233,8.16-18.615,20.208-20.787,33.921c-2.171,13.714,1.126,27.452,9.287,38.685l0,0
	c8.16,11.232,20.208,18.615,33.921,20.787c13.714,2.17,27.452-1.126,38.685-9.287c23.188-16.847,28.347-49.418,11.5-72.606
	c-8.16-11.232-20.208-18.615-33.921-20.787C341.991,315.319,339.235,315.103,336.501,315.103z"/>
<path d="M386.356,286.177c-11.267,0-22.453-2.662-32.783-7.925c-17.225-8.777-30.003-23.737-35.977-42.124
	s-4.431-37.999,4.346-55.225c8.777-17.225,23.737-30.003,42.124-35.977c37.956-12.331,78.869,8.514,91.202,46.47
	c5.974,18.387,4.431,37.999-4.347,55.226c-8.776,17.225-23.737,30.003-42.123,35.977
	C401.438,284.99,393.878,286.177,386.356,286.177z M386.395,161.779c-5.311,0-10.708,0.821-16.025,2.549
	c-13.205,4.291-23.949,13.466-30.252,25.838c-6.303,12.372-7.412,26.456-3.121,39.661c4.291,13.205,13.466,23.949,25.838,30.252
	c12.372,6.304,26.457,7.413,39.661,3.121l0,0c13.205-4.291,23.949-13.466,30.252-25.838c6.303-12.372,7.412-26.456,3.121-39.661
	C428.739,175.759,408.31,161.779,386.395,161.779z"/>
<path d="M449.343,363.093c-1.538,0-3.101-0.349-4.568-1.086c-5.034-2.527-7.066-8.657-4.538-13.691
	c14.456-28.793,21.787-59.852,21.787-92.315c0-5.633,4.566-10.199,10.199-10.199s10.199,4.566,10.199,10.199
	c0,35.67-8.06,69.808-23.957,101.469C456.675,361.033,453.078,363.093,449.343,363.093z"/>
<path d="M430.649,393.689c-2.089,0-4.196-0.638-6.011-1.966c-4.547-3.325-5.538-9.707-2.213-14.253
	c1.232-1.686,2.46-3.42,3.649-5.155c3.184-4.646,9.532-5.831,14.179-2.647s5.832,9.532,2.647,14.179
	c-1.305,1.905-2.655,3.81-4.009,5.663C436.893,392.242,433.792,393.689,430.649,393.689z"/>
</svg>